<svg xmlns="http://www.w3.org/2000/svg" viewBox="0 0 590.74 548.55"><defs><style>.cls-1{fill:#a6bcd4;fill-rule:evenodd;}.cls-2{fill:#24292e;}.cls-3{fill:none;stroke:#24292e;stroke-miterlimit:10;stroke-width:3px;}.cls-4{fill:#fff;}</style></defs><title>Asset 9</title><g id="Layer_2" data-name="Layer 2"><g id="Layer_1-2" data-name="Layer 1"><g id="logo_02"><path id="star" class="cls-1" d="M590.74,211,384,184,295.37,0,206.76,184,0,211,151.9,348.54l-39.24,200,182.71-98.32,182.71,98.32-39.24-200Z"/><path id="head" class="cls-2" d="M428.87,231.62c13-30-3-69-3-69-26-4-72,27-72,27a205.56,205.56,0,0,0-117,0s-46-31-72-27c0,0-16,39-3,69,0,0-28,32-26,72s13.29,90,64.5,109.5c50,19,75,15,95,15s45,4,95-15c51.21-19.46,62.5-69.5,64.5-109.5S428.87,231.62,428.87,231.62Z"/><g id="mirror"><g id="whiskers"><path class="cls-3" d="M409.93,358.22s69.82-16.71,125.68-14.73"/><path class="cls-3" d="M408.66,373s60.49-4.25,116.61,24.23"/></g><g id="eye"><path class="cls-4" d="M360.37,306.12c13,1,23.93,16.38,23,40-.92,23.38-14,33-25,33-14,0-25-14-25-36S346.41,305.05,360.37,306.12Z"/></g><g id="whiskers-2" data-name="whiskers"><path class="cls-3" d="M180.82,358.22S111,341.51,55.13,343.49"/><path class="cls-3" d="M182.08,373s-60.49-4.25-116.61,24.23"/></g><g id="eye-2" data-name="eye"><path class="cls-4" d="M230.37,306.12c-13,1-23.93,16.38-23,40,.92,23.38,14,33,25,33,14,0,25-14,25-36S244.33,305.05,230.37,306.12Z"/></g></g></g></g></g></svg>